<?xml version="1.0" standalone="no"?>
<!DOCTYPE svg PUBLIC "-//W3C//DTD SVG 20010904//EN"
 "http://www.w3.org/TR/2001/REC-SVG-20010904/DTD/svg10.dtd">
<svg version="1.0" xmlns="http://www.w3.org/2000/svg"
 width="104.000000pt" height="32.000000pt" viewBox="0 0 104.000000 32.000000"
 preserveAspectRatio="xMidYMid meet">

<g transform="translate(0.000000,32.000000) scale(0.100000,-0.100000)"
fill="#000000" stroke="none">
<path d="M90 298 c-48 -25 -90 -89 -90 -138 0 -49 42 -113 90 -137 44 -23 50
-23 430 -23 380 0 386 0 430 23 48 24 90 88 90 137 0 49 -42 113 -90 138 -44
22 -50 22 -430 22 -380 0 -386 0 -430 -22z m434 -17 c9 -13 -34 -37 -79 -44
-55 -9 -77 -38 -73 -96 3 -42 5 -46 32 -49 48 -6 74 6 136 63 57 53 100 70
100 41 0 -7 -32 -43 -70 -80 l-70 -66 -90 0 -90 0 0 71 c0 97 25 138 100 162
26 9 99 7 104 -2z m200 3 c13 -5 16 -22 16 -80 0 -71 -1 -74 -38 -114 -38 -39
-40 -40 -107 -40 -67 0 -68 0 -50 20 11 12 31 20 50 20 18 0 44 9 59 21 22 18
26 28 26 76 l0 56 -50 -5 c-44 -5 -57 -12 -109 -62 -41 -38 -68 -56 -85 -56
-14 0 -26 3 -26 8 0 17 138 143 166 152 34 10 126 13 148 4z"/>
</g>
</svg>
